<?xml version="1.0" encoding="UTF-8" standalone="no"?>
<!-- Created with Inkscape (http://www.inkscape.org/) -->

<svg
   xmlns:dc="http://purl.org/dc/elements/1.1/"
   xmlns:cc="http://creativecommons.org/ns#"
   xmlns:rdf="http://www.w3.org/1999/02/22-rdf-syntax-ns#"
   xmlns:svg="http://www.w3.org/2000/svg"
   xmlns="http://www.w3.org/2000/svg"
   xmlns:sodipodi="http://sodipodi.sourceforge.net/DTD/sodipodi-0.dtd"
   xmlns:inkscape="http://www.inkscape.org/namespaces/inkscape"
   id="svg3004"
   version="1.1"
   inkscape:version="0.48.4 r9939"
   width="1250"
   height="1250"
   xml:space="preserve"
   sodipodi:docname="bluepass.ai"><metadata
     id="metadata3010"><rdf:RDF><cc:Work
         rdf:about=""><dc:format>image/svg+xml</dc:format><dc:type
           rdf:resource="http://purl.org/dc/dcmitype/StillImage" /><dc:title></dc:title></cc:Work></rdf:RDF></metadata><defs
     id="defs3008"><clipPath
       clipPathUnits="userSpaceOnUse"
       id="clipPath3018"><path
         d="m 118.728,600.53 c -12.147,-1.449 -18.588,-12.016 -14.311,-23.474 l 0,0 c 0,0 1.288,-3.444 3.918,-9.611 l 0,0 c 4.451,-12.994 22.556,-46.963 31.636,-62.723 l 0,0 c 14.225,-24.688 29.103,-46.383 39.004,-60.145 l 0,0 c 0.009,-0.033 9.511,-34.487 -15.321,-62.998 l 0,0 c 0,0 23.812,11.546 52.114,45.251 l 0,0 c 0.725,0.701 1.431,1.449 2.089,2.297 l 0,0 c 0,0 1.143,1.477 3.1,4.063 l 0,0 c 5.74,7.268 11.609,15.436 17.461,24.604 l 0,0 0.001,0.003 c 11.213,16.176 24.601,35.94 30.89,46.925 l 0,0 c 20.184,35.258 34.509,72.416 34.509,72.416 l 0,0 c 4.398,11.418 -1.958,21.797 -14.123,23.066 l 0,0 c 0,0 -4.216,0.44 -11.268,1.067 l 0,0 c -14.613,1.049 -53.548,3.761 -71.315,4.119 l 0,0 c -2.758,0.056 -5.552,0.082 -8.356,0.082 l 0,0 c -38.648,10e-4 -80.028,-4.942 -80.028,-4.942 m 84.325,-135.732 -16.726,25.574 c -0.429,0.658 -0.865,1.33 -1.3,2.001 l 0,0 -0.241,0.372 c -7.663,11.551 -14.654,23.14 -21.369,35.431 l 0,0 c -2.529,4.531 -4.94,8.966 -7.165,13.19 l 0,0 -10.798,20.496 c 0,0 -0.001,0 -0.001,0.003 l 0,0 c -0.342,0.647 -0.617,1.17 -0.617,1.17 l 0,0 c -0.005,0.008 -0.011,0.018 -0.016,0.029 l 0,0 -3.24,6.152 c -0.158,0.297 -0.239,0.582 -0.252,0.849 l 0,0 c -1.441,2.989 -3.05,6.473 -4.594,10.112 l 0,0 c -0.533,1.256 0.157,2.283 1.522,2.283 l 0,0 22.448,0 c 1.365,0 2.96,-0.994 3.562,-2.219 l 0,0 2.429,-4.943 c 1.247,-2.534 2.597,-2.729 4.094,-2.687 l 0,0 0.781,0.032 c 1.363,0.053 2.477,0.125 2.487,0.164 l 0,0 c 0.01,0.032 1.122,0.12 2.486,0.186 l 0,0 c 7.809,0.374 15.365,0.558 23.013,0.558 l 0,0 c 10.66,0 21.366,-0.356 32.654,-1.087 l 0,0 c 1.362,-0.091 2.463,-0.194 2.46,-0.224 l 0,0 c -0.002,-0.032 1.1,-0.115 2.465,-0.188 l 0,0 27.432,-1.467 c 1.364,-0.072 1.969,-1.118 1.353,-2.337 l 0,0 -13.701,-27.095 c -0.004,-0.008 -0.007,-0.016 -0.011,-0.021 l 0,0 c -0.006,-0.012 0.019,-0.055 0.055,-0.092 l 0,0 c 0.037,-0.038 0.016,-0.159 -0.047,-0.272 l 0,0 c -0.035,-0.068 -0.063,-0.118 -0.076,-0.142 l 0,0 c 0.009,0.03 -0.01,0.066 -0.048,0.088 l 0,0 c -0.042,0.019 -0.575,-0.95 -1.198,-2.165 l 0,0 c -3.234,-6.306 -6.478,-12.304 -9.662,-17.866 l 0,0 c -4.411,-7.704 -9.751,-16.3 -15.912,-25.609 l 0,0 -2.776,-4.383 -0.083,-0.135 -16.048,-25.376 c -0.729,-1.151 -1.373,-2.011 -1.437,-1.917 l 0,0 c -0.066,0.096 -0.219,0.015 -0.344,-0.18 l 0,0 c -0.013,-0.02 -0.032,-0.03 -0.057,-0.03 l 0,0 c -0.215,0 -0.853,0.723 -1.522,1.745 m -25.383,86.807 c -1.365,-0.065 -1.952,-1.233 -1.311,-2.438 l 0,0 c 1.818,-3.412 3.761,-6.971 5.807,-10.635 l 0,0 c 6.74,-12.341 13.468,-23.401 20.534,-34.041 l 0,0 c 0.519,-0.804 2.271,-1.33 3.031,-0.195 l 0,0 c 5.904,8.832 11.832,18.156 16.913,27.028 l 0,0 c 3.289,5.75 6.422,11.589 9.34,17.29 l 0,0 c 0.622,1.214 0.015,2.262 -1.348,2.333 l 0,0 c -8.067,0.409 -7.872,0.409 0.194,0 l 0,0 c 1.364,-0.071 -21.387,1.183 -31.274,1.183 l 0,0 c -7.455,0 -14.695,-0.183 -21.886,-0.525"
         id="path3020" /></clipPath><linearGradient
       x1="0"
       y1="0"
       x2="1"
       y2="0"
       gradientUnits="userSpaceOnUse"
       gradientTransform="matrix(202.11768,0,0,-202.11768,103.09473,493.52539)"
       spreadMethod="pad"
       id="linearGradient3026"><stop
         style="stop-opacity:1;stop-color:#28b3e3"
         offset="0"
         id="stop3028" /><stop
         style="stop-opacity:1;stop-color:#317d9f"
         offset="1"
         id="stop3030" /></linearGradient><clipPath
       clipPathUnits="userSpaceOnUse"
       id="clipPath3038"><path
         d="m 0,1000 1000,0 L 1000,0 0,0 0,1000 z"
         id="path3040" /></clipPath></defs><sodipodi:namedview
     pagecolor="#ffffff"
     bordercolor="#666666"
     borderopacity="1"
     objecttolerance="10"
     gridtolerance="10"
     guidetolerance="10"
     inkscape:pageopacity="0"
     inkscape:pageshadow="2"
     inkscape:window-width="1726"
     inkscape:window-height="812"
     id="namedview3006"
     showgrid="false"
     inkscape:zoom="1.086116"
     inkscape:cx="635.41667"
     inkscape:cy="625"
     inkscape:window-x="0"
     inkscape:window-y="27"
     inkscape:window-maximized="0"
     inkscape:current-layer="g3012" /><g
     id="g3012"
     inkscape:groupmode="layer"
     inkscape:label="bluepass"
     transform="matrix(1.25,0,0,-1.25,0,1250)"><g
       id="g3014"><g
         id="g3016"
         clip-path="url(#clipPath3018)"><g
           id="g3022"><g
             id="g3024"><path
               d="m 118.728,600.53 c -12.147,-1.449 -18.588,-12.016 -14.311,-23.474 l 0,0 c 0,0 1.288,-3.444 3.918,-9.611 l 0,0 c 4.451,-12.994 22.556,-46.963 31.636,-62.723 l 0,0 c 14.225,-24.688 29.103,-46.383 39.004,-60.145 l 0,0 c 0.009,-0.033 9.511,-34.487 -15.321,-62.998 l 0,0 c 0,0 23.812,11.546 52.114,45.251 l 0,0 c 0.725,0.701 1.431,1.449 2.089,2.297 l 0,0 c 0,0 1.143,1.477 3.1,4.063 l 0,0 c 5.74,7.268 11.609,15.436 17.461,24.604 l 0,0 0.001,0.003 c 11.213,16.176 24.601,35.94 30.89,46.925 l 0,0 c 20.184,35.258 34.509,72.416 34.509,72.416 l 0,0 c 4.398,11.418 -1.958,21.797 -14.123,23.066 l 0,0 c 0,0 -4.216,0.44 -11.268,1.067 l 0,0 c -14.613,1.049 -53.548,3.761 -71.315,4.119 l 0,0 c -2.758,0.056 -5.552,0.082 -8.356,0.082 l 0,0 c -38.648,10e-4 -80.028,-4.942 -80.028,-4.942 m 84.325,-135.732 -16.726,25.574 c -0.429,0.658 -0.865,1.33 -1.3,2.001 l 0,0 -0.241,0.372 c -7.663,11.551 -14.654,23.14 -21.369,35.431 l 0,0 c -2.529,4.531 -4.94,8.966 -7.165,13.19 l 0,0 -10.798,20.496 c 0,0 -0.001,0 -0.001,0.003 l 0,0 c -0.342,0.647 -0.617,1.17 -0.617,1.17 l 0,0 c -0.005,0.008 -0.011,0.018 -0.016,0.029 l 0,0 -3.24,6.152 c -0.158,0.297 -0.239,0.582 -0.252,0.849 l 0,0 c -1.441,2.989 -3.05,6.473 -4.594,10.112 l 0,0 c -0.533,1.256 0.157,2.283 1.522,2.283 l 0,0 22.448,0 c 1.365,0 2.96,-0.994 3.562,-2.219 l 0,0 2.429,-4.943 c 1.247,-2.534 2.597,-2.729 4.094,-2.687 l 0,0 0.781,0.032 c 1.363,0.053 2.477,0.125 2.487,0.164 l 0,0 c 0.01,0.032 1.122,0.12 2.486,0.186 l 0,0 c 7.809,0.374 15.365,0.558 23.013,0.558 l 0,0 c 10.66,0 21.366,-0.356 32.654,-1.087 l 0,0 c 1.362,-0.091 2.463,-0.194 2.46,-0.224 l 0,0 c -0.002,-0.032 1.1,-0.115 2.465,-0.188 l 0,0 27.432,-1.467 c 1.364,-0.072 1.969,-1.118 1.353,-2.337 l 0,0 -13.701,-27.095 c -0.004,-0.008 -0.007,-0.016 -0.011,-0.021 l 0,0 c -0.006,-0.012 0.019,-0.055 0.055,-0.092 l 0,0 c 0.037,-0.038 0.016,-0.159 -0.047,-0.272 l 0,0 c -0.035,-0.068 -0.063,-0.118 -0.076,-0.142 l 0,0 c 0.009,0.03 -0.01,0.066 -0.048,0.088 l 0,0 c -0.042,0.019 -0.575,-0.95 -1.198,-2.165 l 0,0 c -3.234,-6.306 -6.478,-12.304 -9.662,-17.866 l 0,0 c -4.411,-7.704 -9.751,-16.3 -15.912,-25.609 l 0,0 -2.776,-4.383 -0.083,-0.135 -16.048,-25.376 c -0.729,-1.151 -1.373,-2.011 -1.437,-1.917 l 0,0 c -0.066,0.096 -0.219,0.015 -0.344,-0.18 l 0,0 c -0.013,-0.02 -0.032,-0.03 -0.057,-0.03 l 0,0 c -0.215,0 -0.853,0.723 -1.522,1.745 m -25.383,86.807 c -1.365,-0.065 -1.952,-1.233 -1.311,-2.438 l 0,0 c 1.818,-3.412 3.761,-6.971 5.807,-10.635 l 0,0 c 6.74,-12.341 13.468,-23.401 20.534,-34.041 l 0,0 c 0.519,-0.804 2.271,-1.33 3.031,-0.195 l 0,0 c 5.904,8.832 11.832,18.156 16.913,27.028 l 0,0 c 3.289,5.75 6.422,11.589 9.34,17.29 l 0,0 c 0.622,1.214 0.015,2.262 -1.348,2.333 l 0,0 c -8.067,0.409 -7.872,0.409 0.194,0 l 0,0 c 1.364,-0.071 -21.387,1.183 -31.274,1.183 l 0,0 c -7.455,0 -14.695,-0.183 -21.886,-0.525"
               style="fill:url(#linearGradient3026);stroke:none"
               id="path3032" /></g></g></g></g></g></svg>